<svg width="380" height="36" viewBox="0 0 380 36" xmlns="http://www.w3.org/2000/svg">
  <defs>
    <linearGradient id="arm" x1="0" y1="0" x2="1" y2="0">
      <stop offset="0%" stop-color="#ffc400"/>
      <stop offset="100%" stop-color="#ff8f00"/>
    </linearGradient>
  </defs>
  <rect x="0" y="10" width="380" height="12" rx="6" fill="url(#arm)"/>
  <g stroke="#8a5800" stroke-width="2" opacity="0.7">
    <line x1="6" y1="10" x2="16" y2="22"/>
    <line x1="16" y1="10" x2="26" y2="22"/>
    <line x1="26" y1="10" x2="36" y2="22"/>
    <line x1="36" y1="10" x2="46" y2="22"/>
    <line x1="46" y1="10" x2="56" y2="22"/>
    <line x1="56" y1="10" x2="66" y2="22"/>
    <line x1="66" y1="10" x2="76" y2="22"/>
    <line x1="76" y1="10" x2="86" y2="22"/>
    <line x1="86" y1="10" x2="96" y2="22"/>
    <line x1="96" y1="10" x2="106" y2="22"/>
    <line x1="106" y1="10" x2="116" y2="22"/>
    <line x1="116" y1="10" x2="126" y2="22"/>
    <line x1="126" y1="10" x2="136" y2="22"/>
    <line x1="136" y1="10" x2="146" y2="22"/>
    <line x1="146" y1="10" x2="156" y2="22"/>
    <line x1="156" y1="10" x2="166" y2="22"/>
    <line x1="166" y1="10" x2="176" y2="22"/>
    <line x1="176" y1="10" x2="186" y2="22"/>
    <line x1="186" y1="10" x2="196" y2="22"/>
    <line x1="196" y1="10" x2="206" y2="22"/>
    <line x1="206" y1="10" x2="216" y2="22"/>
    <line x1="216" y1="10" x2="226" y2="22"/>
    <line x1="226" y1="10" x2="236" y2="22"/>
    <line x1="236" y1="10" x2="246" y2="22"/>
    <line x1="246" y1="10" x2="256" y2="22"/>
    <line x1="256" y1="10" x2="266" y2="22"/>
    <line x1="266" y1="10" x2="276" y2="22"/>
    <line x1="276" y1="10" x2="286" y2="22"/>
    <line x1="286" y1="10" x2="296" y2="22"/>
    <line x1="296" y1="10" x2="306" y2="22"/>
    <line x1="306" y1="10" x2="316" y2="22"/>
    <line x1="316" y1="10" x2="326" y2="22"/>
    <line x1="326" y1="10" x2="336" y2="22"/>
    <line x1="336" y1="10" x2="346" y2="22"/>
    <line x1="346" y1="10" x2="356" y2="22"/>
    <line x1="356" y1="10" x2="366" y2="22"/>
    <line x1="366" y1="10" x2="376" y2="22"/>
  </g>
  <!-- no extra padding at the end -->
</svg>


