<svg width="1200" height="360" viewBox="0 0 1200 360" xmlns="http://www.w3.org/2000/svg">
  <defs>
    <linearGradient id="sky" x1="0" y1="0" x2="0" y2="1">
      <stop offset="0%" stop-color="#1e1f2a"/>
      <stop offset="100%" stop-color="#0f1016"/>
    </linearGradient>
  </defs>
  <rect width="1200" height="360" fill="url(#sky)"/>
  <!-- simple buildings -->
  <g fill="#222530">
    <rect x="20" y="180" width="120" height="160"/>
    <rect x="170" y="140" width="140" height="200"/>
    <rect x="340" y="200" width="110" height="140"/>
    <rect x="480" y="120" width="160" height="220"/>
    <rect x="670" y="170" width="130" height="170"/>
    <rect x="830" y="150" width="150" height="190"/>
    <rect x="1010" y="210" width="120" height="130"/>
  </g>
  <!-- windows -->
  <g fill="#ffd76b" opacity="0.35">
    <rect x="40" y="200" width="10" height="14"/>
    <rect x="60" y="200" width="10" height="14"/>
    <rect x="80" y="200" width="10" height="14"/>
    <rect x="40" y="226" width="10" height="14"/>
    <rect x="60" y="226" width="10" height="14"/>
    <rect x="80" y="226" width="10" height="14"/>
  </g>
  <!-- ground -->
  <rect y="330" width="1200" height="30" fill="#0c0d11"/>
</svg>


